<?xml version="1.0" encoding="utf-8"?>
<!-- Generator: Adobe Illustrator 19.2.1, SVG Export Plug-In . SVG Version: 6.00 Build 0)  -->
<svg version="1.1" id="Layer_1" xmlns="http://www.w3.org/2000/svg" xmlns:xlink="http://www.w3.org/1999/xlink" x="0px" y="0px"
	 viewBox="0 0 512 512" style="enable-background:new 0 0 512 512;" xml:space="preserve">
<style type="text/css">
	.st0{filter:url(#shadow-1);}
	.st1{fill:#FDEB05;}
</style>
<filter  height="300%" id="shadow-1" width="300%" x="-100%" y="-100%">
	<feFlood  flood-color="#fdeb05" result="flood"></feFlood>
	<feComposite  in="flood" in2="SourceGraphic" operator="atop" result="composite"></feComposite>
	<feGaussianBlur  in="composite" result="blur" stdDeviation="20"></feGaussianBlur>
	<feOffset  result="offset"></feOffset>
	<feComposite  in="SourceGraphic" in2="offset" operator="over"></feComposite>
</filter>
<g transform="translate(12,-1)">
	<g>
		<g class="st0">
			<path class="st1" d="M94.4,91.6c-15,9.7-21.9,25.3-21.3,40.4c0.6,15.2,7.8,30,19.3,41.5c1.1,1.1,2.3,2.2,3.6,3.3
				c-6.1,10.2-15.4,11.7-23,9.5c-4.4-1.2-7.8-3.9-9.6-7.1c-1.8-3.2-2.4-7,0-12.8l-15.5-6.5c-4.1,9.8-3.5,19.9,0.8,27.5
				c4.3,7.6,11.6,12.8,19.7,15.1c14,4,31.4-1.1,41.4-16.4c7.7,3.9,16.4,6.4,25.6,7.2c0.6,10.3,4.4,20,10.5,28.6
				c-5.5,1.9-10.1,5.6-13,10.4c-7.8,12.9-2.6,31.8,15.8,44.6l9.6-13.8c-13.8-9.6-13.4-18.1-11-22.1c1.2-2,3.1-3.4,6.2-3.7
				c2.6-0.3,6.4,0.3,10.9,3.1c2.7,2,5.5,3.8,8.4,5.6c14.5,8.7,32.2,15.1,51.9,18.5c-7.3,5.6-12.4,12.9-16.3,21.1
				c-29.5-7.7-58.2-0.1-85.5,31.2c28.4,6.5,56,7.9,81.4-3.1l34.2,95.8c4,14.8,29.2,15.2,33.3,0l34.4-96.4
				c25.8,11.6,53.7,10.3,82.7,3.7c-27.5-31.5-56.3-39-86-31c-3.8-8.4-9-15.4-15.9-20.7c21.1-3.2,40.2-9.8,55.5-19.1
				c3.3-2,6.4-4.1,9.4-6.3c3.9-2.1,7.2-2.6,9.6-2.3c3.1,0.3,4.9,1.7,6.2,3.7c2.4,4,2.8,12.5-11,22.1l9.6,13.8
				c18.4-12.8,23.5-31.7,15.8-44.6c-2.9-4.8-7.4-8.4-12.7-10.4c6.1-8.7,9.9-18.3,10.5-28.6c9.2-0.6,17.9-3.1,25.7-6.8
				c10.1,15,27.3,19.9,41.2,16c8.1-2.3,15.5-7.4,19.7-15.1c4.3-7.6,4.9-17.7,0.8-27.5l-15.5,6.5c2.5,5.9,1.8,9.7,0,12.8
				c-1.8,3.2-5.2,5.8-9.6,7.1c-7.4,2.1-16.5,0.7-22.6-8.9c1.5-1.3,2.9-2.6,4.3-3.9c11.4-11.5,18.7-26.3,19.3-41.5
				c0.6-15.2-6.3-30.7-21.3-40.4l-9.1,14.1c10.4,6.8,14,15.5,13.6,25.7c-0.4,10.1-5.6,21.5-14.3,30.2
				c-13.3,13.3-33.7,21.3-57.7,11.5c5.5-3.4,10.2-8.8,13.1-15.9l-15.6-6.4c-2.4,5.9-5.5,8.1-9,9.1c-3.5,1-7.8,0.4-11.8-1.8
				c-7.9-4.4-14-13.8-7.6-28.4l-15.4-6.8c-8.8,20-1.1,38.8,11.9,48l-0.1,0.1c14.3,12.2,29,18.9,43,21.3
				c-5.2,13.5-12.7,21.1-20.6,25.2c-8.4,4.3-17.6,4.8-25.9,2.5c-8.3-2.3-15.3-7.3-19-13c-3.6-5.7-4.5-11.5-0.8-18.8l-15-7.6
				c-6.3,12.3-4.7,25.6,1.6,35.5c6.3,9.9,16.8,16.9,28.7,20.2c3.1,0.8,6.2,1.4,9.4,1.7c-17.6,7.7-39.6,12.4-63.4,12.4
				c-22.7,0-43.6-4.2-60.7-11.2c2.3-0.3,4.6-0.8,6.9-1.4c11.9-3.2,22.4-10.3,28.7-20.2c6.3-9.9,7.8-23.2,1.6-35.5l-15,7.6
				c3.7,7.3,2.8,13.1-0.8,18.8c-3.6,5.7-10.7,10.7-19,13c-8.3,2.3-17.5,1.8-25.9-2.5c-8.2-4.2-15.9-12.2-21.1-26.4
				c14.1-2.2,28.9-8.7,43.4-20.8c13.7-8.8,22.1-28.2,13.1-48.8l-15.4,6.8c6.4,14.6,0.3,24-7.6,28.4c-4,2.2-8.3,2.8-11.8,1.8
				c-3.5-1-6.6-3.2-9-9.1l-15.6,6.4c2.9,7,7.5,12.4,13,15.8c-24.1,9.9-44.6,2-58-11.4c-8.7-8.8-13.9-20.1-14.3-30.2
				c-0.4-10.1,3.2-18.9,13.6-25.7L94.4,91.6L94.4,91.6z"/>
		</g>
	</g>
</g>
</svg>
